<svg xmlns="http://www.w3.org/2000/svg" width="1920" height="33" viewBox="0 0 1920 33">
  <metadata><?xpacket begin="﻿" id="W5M0MpCehiHzreSzNTczkc9d"?>
<x:xmpmeta xmlns:x="adobe:ns:meta/" x:xmptk="Adobe XMP Core 5.6-c138 79.159824, 2016/09/14-01:09:01        ">
   <rdf:RDF xmlns:rdf="http://www.w3.org/1999/02/22-rdf-syntax-ns#">
      <rdf:Description rdf:about=""/>
   </rdf:RDF>
</x:xmpmeta>
                                                                                                    
                                                                                                    
                                                                                                    
                                                                                                    
                                                                                                    
                                                                                                    
                                                                                                    
                                                                                                    
                                                                                                    
                                                                                                    
                                                                                                    
                                                                                                    
                                                                                                    
                                                                                                    
                                                                                                    
                                                                                                    
                                                                                                    
                                                                                                    
                                                                                                    
                                                                                                    
                           
<?xpacket end="w"?></metadata>
<defs>
    <style>
      .cls-1 {
        fill: #24262b;
        fill-rule: evenodd;
      }
    </style>
  </defs>
  <path id="Shape_13_copy_2" data-name="Shape 13 copy 2" class="cls-1" d="M0,13s18.948-2.506,29,1,31.8,2.994,39,3,50.562,0.289,62,2,126.858-1.582,144-3S324.975,1.272,368,4,469.787,4.887,480,4s38.844-5.554,73,0c0,0,12.646-1.6,30,3s87.835,12.489,109,12,83.892-1.482,101,2c0,0,28.479-11,77-8S930.108,0.4,972,6s100.13-13.839,148-2,121.03,29.833,170,25,94.97,8.247,125,1,123.27-21.011,149-19S1688.26-.47,1750,8s103.18,17.2,123,17,41.19-15.883,47-17V-238H0V13Z"/>
</svg>
